# xmcd
#
# Track frame offsets:
#	150
#	15442
#	29952
#	45593
#	61457
#	75481
#	90364
#	103707
#	117304
#	133930
#	150570
#	168446
#	186687
#	205245
#	221818
#	238538
#
# Disc length: 3395 seconds
#
# Revision: 1
# Processed by: cddbd v1.5.2PL0 Copyright (c) Steve Scherf et al.
# Submitted via: audiograbber 1.83.01
#
DISCID=e00d4110
DTITLE=Jake Owen - Days Of Gold (Target Deluxe)
DYEAR=2018
DGENRE=Country
TTITLE0=Days Of Gold
TTITLE1=Beachin'
TTITLE2=1972
TTITLE3=Ghost Town
TTITLE4=Life Of The Party
TTITLE5=Good Timing
TTITLE6=Tall Glass Of Something
TTITLE7=One Little Kiss (Never Killed
TTITLE8=What We Ain't Got
TTITLE9=Tipsy
TTITLE10=Drivin' All Night
TTITLE11=Sure Feels Right
TTITLE12=After The Music's Stopped (Bon
TTITLE13=I Like You A Lot (Bonus Track)
TTITLE14=Summer Jam (Feat. Florida Geor
TTITLE15=Surefire Feeling (Bonus Track)
EXTD=
EXTT0=
EXTT1=
EXTT2=
EXTT3=
EXTT4=
EXTT5=
EXTT6=
EXTT7=
EXTT8=
EXTT9=
EXTT10=
EXTT11=
EXTT12=
EXTT13=
EXTT14=
EXTT15=
PLAYORDER=
